<svg id="Слой_1" data-name="Слой 1" xmlns="http://www.w3.org/2000/svg" viewBox="0 0 32 32"><defs><style>.cls-1{fill:none;}</style></defs><title>img_left</title><g id="frame"><rect class="cls-1" width="32" height="32"/></g><g id="Layer_2" data-name="Layer 2"><path d="M16.77,17.61h-12a1.8,1.8,0,0,1-1.81-1.78V6.34A1.8,1.8,0,0,1,4.74,4.56h12a1.8,1.8,0,0,1,1.81,1.78v9.49A1.8,1.8,0,0,1,16.77,17.61ZM4.74,5.75a.6.6,0,0,0-.6.59v9.49a.59.59,0,0,0,.6.59h12a.6.6,0,0,0,.61-.59V6.34a.6.6,0,0,0-.61-.59Z" transform="translate(-0.26)"/><path d="M13.76,10.49a1.78,1.78,0,1,1,1.81-1.78A1.79,1.79,0,0,1,13.76,10.49Zm0-2.37a.6.6,0,1,0,.61.59A.6.6,0,0,0,13.76,8.12Z" transform="translate(-0.26)"/><path d="M16.77,17.61a.6.6,0,0,1-.5-.27l-2.61-3.85a.6.6,0,0,0-.83-.16.52.52,0,0,0-.17.16l-.2.29a.6.6,0,0,1-.85.09.59.59,0,0,1-.15-.74l.2-.3a1.82,1.82,0,0,1,2.5-.5,1.87,1.87,0,0,1,.51.5l2.6,3.86a.59.59,0,0,1-.17.82A.61.61,0,0,1,16.77,17.61Z" transform="translate(-0.26)"/><path d="M4.74,17.61a.64.64,0,0,1-.33-.1.59.59,0,0,1-.18-.82L8,11a1.82,1.82,0,0,1,1.51-.81h0A1.82,1.82,0,0,1,11,11l3.86,5.72a.58.58,0,0,1-.24.8.6.6,0,0,1-.75-.15L10,11.63a.61.61,0,0,0-.5-.26h0a.58.58,0,0,0-.5.27l-3.75,5.7A.62.62,0,0,1,4.74,17.61Z" transform="translate(-0.26)"/></g><path d="M29.36,5.66a1.1,1.1,0,0,1-1,1.2H21.57a1.1,1.1,0,0,1-1-1.2,1.1,1.1,0,0,1,1-1.2h6.82A1.11,1.11,0,0,1,29.36,5.66Zm0,10.75a1.11,1.11,0,0,1-1,1.2H21.57a1.1,1.1,0,0,1-1-1.2,1.1,1.1,0,0,1,1-1.2h6.82A1.1,1.1,0,0,1,29.36,16.41Zm0-5.23a1.11,1.11,0,0,1-1,1.21H21.57a1.11,1.11,0,0,1-1-1.21,1.1,1.1,0,0,1,1-1.2h6.82A1.11,1.11,0,0,1,29.36,11.18Zm0,10.63a1.2,1.2,0,0,1-1.2,1.2h-24a1.2,1.2,0,0,1,0-2.4h24A1.2,1.2,0,0,1,29.36,21.81Zm.23,5.4a1.2,1.2,0,0,1-1.2,1.2h-24a1.2,1.2,0,1,1,0-2.4h24A1.2,1.2,0,0,1,29.59,27.21Z" transform="translate(-0.26)"/><g id="Layer_2-2" data-name="Layer 2"><path d="M16.77,17.17h-12a1.8,1.8,0,0,1-1.81-1.78V5.91A1.79,1.79,0,0,1,4.74,4.13h12a1.79,1.79,0,0,1,1.81,1.78v9.48A1.8,1.8,0,0,1,16.77,17.17ZM4.74,5.31a.6.6,0,0,0-.6.6v9.48a.59.59,0,0,0,.6.59h12a.6.6,0,0,0,.61-.59V5.91a.6.6,0,0,0-.61-.6Z" transform="translate(-0.26)"/><path d="M13.76,10.06a1.78,1.78,0,1,1,1.81-1.78A1.79,1.79,0,0,1,13.76,10.06Zm0-2.38a.6.6,0,1,0,.61.6A.6.6,0,0,0,13.76,7.68Z" transform="translate(-0.26)"/><path d="M16.77,17.17a.6.6,0,0,1-.5-.27l-2.61-3.85a.61.61,0,0,0-.83-.16.65.65,0,0,0-.17.16l-.2.3a.62.62,0,0,1-.85.09.6.6,0,0,1-.15-.75l.2-.3a1.82,1.82,0,0,1,2.5-.5,1.87,1.87,0,0,1,.51.5l2.6,3.86a.59.59,0,0,1-.17.82A.54.54,0,0,1,16.77,17.17Z" transform="translate(-0.26)"/><path d="M4.74,17.17a.63.63,0,0,1-.33-.09.6.6,0,0,1-.18-.82L8,10.55a1.84,1.84,0,0,1,1.51-.81h0a1.8,1.8,0,0,1,1.5.8l3.86,5.71a.59.59,0,0,1-1,.65L10,11.19a.61.61,0,0,0-.5-.26h0a.58.58,0,0,0-.5.27L5.24,16.9A.6.6,0,0,1,4.74,17.17Z" transform="translate(-0.26)"/></g><path d="M29.36,5.23a1.11,1.11,0,0,1-1,1.2H21.57a1.1,1.1,0,0,1-1-1.2,1.1,1.1,0,0,1,1-1.2h6.82A1.1,1.1,0,0,1,29.36,5.23Zm0,10.74a1.11,1.11,0,0,1-1,1.2H21.57a1.1,1.1,0,0,1-1-1.2,1.1,1.1,0,0,1,1-1.2h6.82A1.11,1.11,0,0,1,29.36,16Zm0-5.22a1.11,1.11,0,0,1-1,1.2H21.57a1.1,1.1,0,0,1-1-1.2,1.1,1.1,0,0,1,1-1.2h6.82A1.1,1.1,0,0,1,29.36,10.75Zm0,10.62a1.2,1.2,0,0,1-1.2,1.2h-24a1.2,1.2,0,1,1,0-2.4h24A1.2,1.2,0,0,1,29.36,21.37Zm.23,5.4a1.2,1.2,0,0,1-1.2,1.2h-24a1.2,1.2,0,1,1,0-2.4h24A1.2,1.2,0,0,1,29.59,26.77Z" transform="translate(-0.26)"/></svg>