<svg id="Слой_1" data-name="Слой 1" xmlns="http://www.w3.org/2000/svg" viewBox="0 0 15 13.79"><defs><style>.cls-1{fill-rule:evenodd;}.cls-2{fill:#fff;}</style></defs><title>favicon</title><path class="cls-1" d="M7.38,2.09l6,6v4.2a1.5,1.5,0,0,1-1.5,1.5h-9a1.5,1.5,0,0,1-1.5-1.5V8.09Zm5-.8v3.5l-2-2V1.29a.5.5,0,0,1,.5-.5h1A.5.5,0,0,1,12.38,1.29Z"/><path class="cls-1" d="M6.79.29a1,1,0,0,1,1.42,0l6.64,6.65a.5.5,0,0,1,0,.71.5.5,0,0,1-.7,0L7.5,1,.85,7.65a.5.5,0,0,1-.7,0,.5.5,0,0,1,0-.71Z"/><path class="cls-2" d="M7.5,10.2v-1H10v2.28a3.2,3.2,0,0,1-1.05.62,4,4,0,0,1-1.4.26A3.17,3.17,0,0,1,6,12,2.38,2.38,0,0,1,5,11a3.57,3.57,0,0,1-.34-1.53A3.34,3.34,0,0,1,5,7.83a2.51,2.51,0,0,1,1.1-1.06,2.93,2.93,0,0,1,1.37-.29,2.74,2.74,0,0,1,1.67.45,2.09,2.09,0,0,1,.77,1.23l-1.15.22a1.22,1.22,0,0,0-.46-.67,1.38,1.38,0,0,0-.83-.24A1.57,1.57,0,0,0,6.27,8a2.07,2.07,0,0,0-.44,1.43,2.21,2.21,0,0,0,.45,1.52,1.51,1.51,0,0,0,1.19.51,1.93,1.93,0,0,0,.73-.14,2.43,2.43,0,0,0,.62-.34V10.2Z"/></svg>